<mxfile host="Electron" agent="Mozilla/5.0 (Windows NT 10.0; Win64; x64) AppleWebKit/537.36 (KHTML, like Gecko) draw.io/27.0.9 Chrome/134.0.6998.205 Electron/35.4.0 Safari/537.36" version="27.0.9">
  <diagram name="Página-1" id="tM3ftosBq5wTvWjN4mbQ">
    <mxGraphModel dx="1678" dy="1029" grid="1" gridSize="10" guides="1" tooltips="1" connect="1" arrows="1" fold="1" page="1" pageScale="1" pageWidth="1169" pageHeight="1654" math="0" shadow="0">
      <root>
        <mxCell id="0" />
        <mxCell id="1" parent="0" />
        <mxCell id="wtUbn_X2x-yJxTkHuakB-13" style="edgeStyle=orthogonalEdgeStyle;rounded=0;orthogonalLoop=1;jettySize=auto;html=1;exitX=0.5;exitY=1;exitDx=0;exitDy=0;exitPerimeter=0;entryX=0.5;entryY=0;entryDx=0;entryDy=0;" edge="1" parent="1" source="wtUbn_X2x-yJxTkHuakB-11" target="2XhtS2TlbzKRDNo_2Yrc-110">
          <mxGeometry relative="1" as="geometry" />
        </mxCell>
        <mxCell id="wtUbn_X2x-yJxTkHuakB-11" value="" style="verticalLabelPosition=bottom;verticalAlign=top;html=1;shape=card;whiteSpace=wrap;size=20;arcSize=12;" vertex="1" parent="1">
          <mxGeometry x="753.75" y="610" width="100" height="60" as="geometry" />
        </mxCell>
        <mxCell id="7ZSRkaOjpOQk4Y71W81P-20" style="edgeStyle=orthogonalEdgeStyle;rounded=0;orthogonalLoop=1;jettySize=auto;html=1;exitX=1;exitY=0.5;exitDx=0;exitDy=0;entryX=0;entryY=0.5;entryDx=0;entryDy=0;" parent="1" edge="1">
          <mxGeometry relative="1" as="geometry">
            <mxPoint x="401.5600000000002" y="648" as="sourcePoint" />
          </mxGeometry>
        </mxCell>
        <mxCell id="7ZSRkaOjpOQk4Y71W81P-28" style="edgeStyle=orthogonalEdgeStyle;rounded=0;orthogonalLoop=1;jettySize=auto;html=1;exitX=0;exitY=0.5;exitDx=0;exitDy=0;entryX=0.5;entryY=0;entryDx=0;entryDy=0;" parent="1" edge="1">
          <mxGeometry relative="1" as="geometry">
            <mxPoint x="309.6900000000003" y="648" as="sourcePoint" />
          </mxGeometry>
        </mxCell>
        <mxCell id="7ZSRkaOjpOQk4Y71W81P-25" style="edgeStyle=orthogonalEdgeStyle;rounded=0;orthogonalLoop=1;jettySize=auto;html=1;exitX=1;exitY=0.5;exitDx=0;exitDy=0;entryX=0;entryY=0.5;entryDx=0;entryDy=0;" parent="1" edge="1">
          <mxGeometry relative="1" as="geometry">
            <mxPoint x="342.18000000000006" y="760" as="sourcePoint" />
          </mxGeometry>
        </mxCell>
        <mxCell id="2XhtS2TlbzKRDNo_2Yrc-51" style="edgeStyle=orthogonalEdgeStyle;rounded=0;orthogonalLoop=1;jettySize=auto;html=1;exitX=0;exitY=0.5;exitDx=0;exitDy=0;entryX=0;entryY=0.5;entryDx=0;entryDy=0;" parent="1" source="2XhtS2TlbzKRDNo_2Yrc-49" edge="1">
          <mxGeometry relative="1" as="geometry">
            <mxPoint x="939.4099999999999" y="832" as="targetPoint" />
          </mxGeometry>
        </mxCell>
        <mxCell id="2XhtS2TlbzKRDNo_2Yrc-85" value="&quot;Confirme sua senha, antes de excluí-la&quot;" style="shape=document;whiteSpace=wrap;html=1;boundedLbl=1;" parent="1" vertex="1">
          <mxGeometry x="507.97" y="299.92" width="131.25" height="57.69" as="geometry" />
        </mxCell>
        <mxCell id="2XhtS2TlbzKRDNo_2Yrc-86" value="" style="verticalLabelPosition=bottom;verticalAlign=top;html=1;shape=card;whiteSpace=wrap;size=20;arcSize=12;container=1;" parent="1" vertex="1">
          <mxGeometry x="519.22" y="407.9200000000001" width="109.37" height="40" as="geometry" />
        </mxCell>
        <mxCell id="2XhtS2TlbzKRDNo_2Yrc-87" value="&lt;font style=&quot;font-size: 12px;&quot;&gt;Confirmar Senha&lt;/font&gt;" style="text;html=1;align=center;verticalAlign=middle;resizable=0;points=[];autosize=1;strokeColor=none;fillColor=none;" parent="2XhtS2TlbzKRDNo_2Yrc-86" vertex="1">
          <mxGeometry x="-0.6263913837438189" y="5" width="110" height="30" as="geometry" />
        </mxCell>
        <mxCell id="2XhtS2TlbzKRDNo_2Yrc-88" value="" style="endArrow=classic;html=1;rounded=0;entryX=0.5;entryY=0;entryDx=0;entryDy=0;entryPerimeter=0;exitX=0.5;exitY=0.885;exitDx=0;exitDy=0;exitPerimeter=0;" parent="1" source="2XhtS2TlbzKRDNo_2Yrc-85" target="2XhtS2TlbzKRDNo_2Yrc-86" edge="1">
          <mxGeometry width="50" height="50" relative="1" as="geometry">
            <mxPoint x="619.22" y="357.9200000000001" as="sourcePoint" />
            <mxPoint x="669.22" y="307.9200000000001" as="targetPoint" />
          </mxGeometry>
        </mxCell>
        <mxCell id="2XhtS2TlbzKRDNo_2Yrc-89" value="" style="edgeStyle=orthogonalEdgeStyle;rounded=0;orthogonalLoop=1;jettySize=auto;html=1;entryX=1.008;entryY=0.423;entryDx=0;entryDy=0;entryPerimeter=0;" parent="1" source="2XhtS2TlbzKRDNo_2Yrc-91" target="2XhtS2TlbzKRDNo_2Yrc-93" edge="1">
          <mxGeometry relative="1" as="geometry">
            <mxPoint x="495.47" y="527.9788235294118" as="targetPoint" />
          </mxGeometry>
        </mxCell>
        <mxCell id="2XhtS2TlbzKRDNo_2Yrc-91" value="Confirmar Senha é igual a Senha salva no banco de dados para essa conta?" style="rhombus;whiteSpace=wrap;html=1;" parent="1" vertex="1">
          <mxGeometry x="523.44" y="477.9200000000001" width="100.94" height="100" as="geometry" />
        </mxCell>
        <mxCell id="2XhtS2TlbzKRDNo_2Yrc-92" value="" style="edgeStyle=orthogonalEdgeStyle;rounded=0;orthogonalLoop=1;jettySize=auto;html=1;" parent="1" source="2XhtS2TlbzKRDNo_2Yrc-87" target="2XhtS2TlbzKRDNo_2Yrc-91" edge="1">
          <mxGeometry relative="1" as="geometry" />
        </mxCell>
        <mxCell id="2XhtS2TlbzKRDNo_2Yrc-145" value="" style="edgeStyle=orthogonalEdgeStyle;rounded=0;orthogonalLoop=1;jettySize=auto;html=1;" parent="1" source="2XhtS2TlbzKRDNo_2Yrc-93" target="2XhtS2TlbzKRDNo_2Yrc-144" edge="1">
          <mxGeometry relative="1" as="geometry" />
        </mxCell>
        <mxCell id="2XhtS2TlbzKRDNo_2Yrc-93" value="&quot;Senha incorreta. Processo de exclusão de senha interrompido.&lt;div&gt;&lt;br&gt;&lt;/div&gt;&lt;div&gt;Voltando a visualizar conta...&lt;span style=&quot;background-color: transparent; color: light-dark(rgb(0, 0, 0), rgb(255, 255, 255));&quot;&gt;&quot;&lt;/span&gt;&lt;/div&gt;" style="shape=document;whiteSpace=wrap;html=1;boundedLbl=1;" parent="1" vertex="1">
          <mxGeometry x="284.88" y="493.12" width="205.89" height="84.8" as="geometry" />
        </mxCell>
        <mxCell id="2XhtS2TlbzKRDNo_2Yrc-94" value="F" style="text;html=1;align=center;verticalAlign=middle;resizable=0;points=[];autosize=1;strokeColor=none;fillColor=none;" parent="1" vertex="1">
          <mxGeometry x="493.44000000000005" y="499.9200000000001" width="30" height="30" as="geometry" />
        </mxCell>
        <mxCell id="2XhtS2TlbzKRDNo_2Yrc-95" value="&quot;Ao excluir sua conta, perderá acesso a todo o sistema Mutare e a todo o progresso registrado de sua conta no sistema.&lt;div&gt;&lt;br&gt;&lt;/div&gt;&lt;div&gt;Deseja mesmo ecluí-la(s/n)?&amp;nbsp;&lt;span style=&quot;background-color: transparent; color: light-dark(rgb(0, 0, 0), rgb(255, 255, 255));&quot;&gt;&quot;&lt;/span&gt;&lt;/div&gt;" style="shape=document;whiteSpace=wrap;html=1;boundedLbl=1;" parent="1" vertex="1">
          <mxGeometry x="667.7" y="463.73" width="307.18" height="102.39" as="geometry" />
        </mxCell>
        <mxCell id="2XhtS2TlbzKRDNo_2Yrc-98" value="&quot;Você tem certeza que quer excluir sua conta Mutare(s/n)?" style="shape=document;whiteSpace=wrap;html=1;boundedLbl=1;" parent="1" vertex="1">
          <mxGeometry x="330" y="51" width="213.21" height="50" as="geometry" />
        </mxCell>
        <mxCell id="2XhtS2TlbzKRDNo_2Yrc-99" value="V" style="text;html=1;align=center;verticalAlign=middle;resizable=0;points=[];autosize=1;strokeColor=none;fillColor=none;" parent="1" vertex="1">
          <mxGeometry x="470.47000000000014" y="227.91999999999996" width="30" height="30" as="geometry" />
        </mxCell>
        <mxCell id="2XhtS2TlbzKRDNo_2Yrc-100" value="F" style="text;html=1;align=center;verticalAlign=middle;resizable=0;points=[];autosize=1;strokeColor=none;fillColor=none;" parent="1" vertex="1">
          <mxGeometry x="339.5300000000001" y="227.75999999999988" width="30" height="30" as="geometry" />
        </mxCell>
        <mxCell id="2XhtS2TlbzKRDNo_2Yrc-107" style="edgeStyle=orthogonalEdgeStyle;rounded=0;orthogonalLoop=1;jettySize=auto;html=1;exitX=1;exitY=0.5;exitDx=0;exitDy=0;entryX=0.5;entryY=0;entryDx=0;entryDy=0;" parent="1" source="2XhtS2TlbzKRDNo_2Yrc-101" target="2XhtS2TlbzKRDNo_2Yrc-85" edge="1">
          <mxGeometry relative="1" as="geometry" />
        </mxCell>
        <mxCell id="2XhtS2TlbzKRDNo_2Yrc-149" value="" style="edgeStyle=orthogonalEdgeStyle;rounded=0;orthogonalLoop=1;jettySize=auto;html=1;entryX=1;entryY=0.5;entryDx=0;entryDy=0;" parent="1" source="2XhtS2TlbzKRDNo_2Yrc-101" target="wtUbn_X2x-yJxTkHuakB-5" edge="1">
          <mxGeometry relative="1" as="geometry" />
        </mxCell>
        <mxCell id="2XhtS2TlbzKRDNo_2Yrc-101" value="&amp;nbsp;Escolha igual a &#39;s&#39;?" style="rhombus;whiteSpace=wrap;html=1;" parent="1" vertex="1">
          <mxGeometry x="369.5300000000001" y="199.91999999999993" width="100.94" height="100" as="geometry" />
        </mxCell>
        <mxCell id="2XhtS2TlbzKRDNo_2Yrc-108" value="" style="endArrow=classic;html=1;rounded=0;entryX=0;entryY=0.5;entryDx=0;entryDy=0;exitX=1;exitY=0.5;exitDx=0;exitDy=0;" parent="1" source="2XhtS2TlbzKRDNo_2Yrc-91" target="2XhtS2TlbzKRDNo_2Yrc-95" edge="1">
          <mxGeometry width="50" height="50" relative="1" as="geometry">
            <mxPoint x="672.97" y="379.9200000000001" as="sourcePoint" />
            <mxPoint x="722.97" y="329.9200000000001" as="targetPoint" />
            <Array as="points">
              <mxPoint x="634.88" y="527.61" />
              <mxPoint x="634.88" y="511.61" />
            </Array>
          </mxGeometry>
        </mxCell>
        <mxCell id="2XhtS2TlbzKRDNo_2Yrc-109" value="F" style="text;html=1;align=center;verticalAlign=middle;resizable=0;points=[];autosize=1;strokeColor=none;fillColor=none;" parent="1" vertex="1">
          <mxGeometry x="713.2800000000001" y="759" width="30" height="30" as="geometry" />
        </mxCell>
        <mxCell id="2XhtS2TlbzKRDNo_2Yrc-117" value="" style="edgeStyle=orthogonalEdgeStyle;rounded=0;orthogonalLoop=1;jettySize=auto;html=1;" parent="1" source="2XhtS2TlbzKRDNo_2Yrc-110" edge="1">
          <mxGeometry relative="1" as="geometry">
            <mxPoint x="893.8400000000003" y="781" as="targetPoint" />
          </mxGeometry>
        </mxCell>
        <mxCell id="2XhtS2TlbzKRDNo_2Yrc-125" style="edgeStyle=orthogonalEdgeStyle;rounded=0;orthogonalLoop=1;jettySize=auto;html=1;exitX=0;exitY=0.5;exitDx=0;exitDy=0;entryX=1;entryY=0.5;entryDx=0;entryDy=0;" parent="1" source="2XhtS2TlbzKRDNo_2Yrc-110" target="2XhtS2TlbzKRDNo_2Yrc-124" edge="1">
          <mxGeometry relative="1" as="geometry" />
        </mxCell>
        <mxCell id="2XhtS2TlbzKRDNo_2Yrc-110" value="&amp;nbsp;Escolha igual a &quot;s&quot;?" style="rhombus;whiteSpace=wrap;html=1;" parent="1" vertex="1">
          <mxGeometry x="752.8100000000001" y="731" width="100.94" height="100" as="geometry" />
        </mxCell>
        <mxCell id="2XhtS2TlbzKRDNo_2Yrc-119" value="" style="edgeStyle=orthogonalEdgeStyle;rounded=0;orthogonalLoop=1;jettySize=auto;html=1;" parent="1" source="2XhtS2TlbzKRDNo_2Yrc-116" target="2XhtS2TlbzKRDNo_2Yrc-118" edge="1">
          <mxGeometry relative="1" as="geometry" />
        </mxCell>
        <mxCell id="2XhtS2TlbzKRDNo_2Yrc-116" value="Exclusão de todas as informações da conta do banco de dados" style="whiteSpace=wrap;html=1;" parent="1" vertex="1">
          <mxGeometry x="893.9399999999999" y="759" width="110" height="57.87" as="geometry" />
        </mxCell>
        <mxCell id="2XhtS2TlbzKRDNo_2Yrc-123" value="" style="edgeStyle=orthogonalEdgeStyle;rounded=0;orthogonalLoop=1;jettySize=auto;html=1;" parent="1" source="2XhtS2TlbzKRDNo_2Yrc-118" target="2XhtS2TlbzKRDNo_2Yrc-122" edge="1">
          <mxGeometry relative="1" as="geometry" />
        </mxCell>
        <mxCell id="2XhtS2TlbzKRDNo_2Yrc-118" value="&quot;Sua conta foi exlcuída com sucesso.&quot;" style="shape=document;whiteSpace=wrap;html=1;boundedLbl=1;" parent="1" vertex="1">
          <mxGeometry x="883.31" y="842" width="131.25" height="46.02" as="geometry" />
        </mxCell>
        <mxCell id="2XhtS2TlbzKRDNo_2Yrc-122" value="Cadastro" style="ellipse;whiteSpace=wrap;html=1;" parent="1" vertex="1">
          <mxGeometry x="1043.945" y="825.0100000000002" width="80" height="80" as="geometry" />
        </mxCell>
        <mxCell id="2XhtS2TlbzKRDNo_2Yrc-147" value="" style="edgeStyle=orthogonalEdgeStyle;rounded=0;orthogonalLoop=1;jettySize=auto;html=1;" parent="1" source="2XhtS2TlbzKRDNo_2Yrc-124" target="2XhtS2TlbzKRDNo_2Yrc-146" edge="1">
          <mxGeometry relative="1" as="geometry" />
        </mxCell>
        <mxCell id="2XhtS2TlbzKRDNo_2Yrc-124" value="&quot;Processo de exclusão de senha interrompido.&lt;div&gt;&lt;br&gt;&lt;/div&gt;&lt;div&gt;Voltando a visualizar conta...&lt;span style=&quot;color: light-dark(rgb(0, 0, 0), rgb(255, 255, 255)); background-color: transparent;&quot;&gt;&quot;&lt;/span&gt;&lt;/div&gt;" style="shape=document;whiteSpace=wrap;html=1;boundedLbl=1;" parent="1" vertex="1">
          <mxGeometry x="583.9399999999999" y="720" width="118.75" height="122" as="geometry" />
        </mxCell>
        <mxCell id="2XhtS2TlbzKRDNo_2Yrc-128" value="V" style="text;html=1;align=center;verticalAlign=middle;resizable=0;points=[];autosize=1;strokeColor=none;fillColor=none;" parent="1" vertex="1">
          <mxGeometry x="624.38" y="487.61" width="30" height="30" as="geometry" />
        </mxCell>
        <mxCell id="2XhtS2TlbzKRDNo_2Yrc-129" value="V" style="text;html=1;align=center;verticalAlign=middle;resizable=0;points=[];autosize=1;strokeColor=none;fillColor=none;" parent="1" vertex="1">
          <mxGeometry x="847.0299999999999" y="749" width="30" height="30" as="geometry" />
        </mxCell>
        <mxCell id="2XhtS2TlbzKRDNo_2Yrc-139" value="Visualizar conta" style="ellipse;whiteSpace=wrap;html=1;" parent="1" vertex="1">
          <mxGeometry x="100.00000000000006" y="209.91999999999993" width="80" height="80" as="geometry" />
        </mxCell>
        <mxCell id="2XhtS2TlbzKRDNo_2Yrc-144" value="Visualizar conta" style="ellipse;whiteSpace=wrap;html=1;" parent="1" vertex="1">
          <mxGeometry x="170.00000000000006" y="495.5200000000001" width="80" height="80" as="geometry" />
        </mxCell>
        <mxCell id="2XhtS2TlbzKRDNo_2Yrc-146" value="Visualizar conta" style="ellipse;whiteSpace=wrap;html=1;" parent="1" vertex="1">
          <mxGeometry x="469.53000000000014" y="741" width="80" height="80" as="geometry" />
        </mxCell>
        <mxCell id="2XhtS2TlbzKRDNo_2Yrc-153" style="edgeStyle=orthogonalEdgeStyle;rounded=0;orthogonalLoop=1;jettySize=auto;html=1;exitX=0.5;exitY=1;exitDx=0;exitDy=0;exitPerimeter=0;entryX=0.5;entryY=0;entryDx=0;entryDy=0;" parent="1" source="2XhtS2TlbzKRDNo_2Yrc-152" target="2XhtS2TlbzKRDNo_2Yrc-101" edge="1">
          <mxGeometry relative="1" as="geometry" />
        </mxCell>
        <mxCell id="2XhtS2TlbzKRDNo_2Yrc-152" value="" style="verticalLabelPosition=bottom;verticalAlign=top;html=1;shape=card;whiteSpace=wrap;size=20;arcSize=12;" parent="1" vertex="1">
          <mxGeometry x="369.52999999999986" y="119.99999999999986" width="100" height="60" as="geometry" />
        </mxCell>
        <mxCell id="2XhtS2TlbzKRDNo_2Yrc-154" value="" style="endArrow=classic;html=1;rounded=0;entryX=0.5;entryY=0;entryDx=0;entryDy=0;entryPerimeter=0;exitX=0.426;exitY=0.921;exitDx=0;exitDy=0;exitPerimeter=0;" parent="1" source="2XhtS2TlbzKRDNo_2Yrc-98" edge="1">
          <mxGeometry width="50" height="50" relative="1" as="geometry">
            <mxPoint x="171.2" y="472.15999999999997" as="sourcePoint" />
            <mxPoint x="415.84999999999974" y="119.99999999999977" as="targetPoint" />
          </mxGeometry>
        </mxCell>
        <mxCell id="2XhtS2TlbzKRDNo_2Yrc-155" value="Escolha" style="text;html=1;align=center;verticalAlign=middle;whiteSpace=wrap;rounded=0;" parent="1" vertex="1">
          <mxGeometry x="386.7900000000001" y="134.99999999999986" width="60" height="30" as="geometry" />
        </mxCell>
        <mxCell id="wtUbn_X2x-yJxTkHuakB-2" value="" style="edgeStyle=orthogonalEdgeStyle;rounded=0;orthogonalLoop=1;jettySize=auto;html=1;" edge="1" parent="1" source="wtUbn_X2x-yJxTkHuakB-1" target="2XhtS2TlbzKRDNo_2Yrc-98">
          <mxGeometry relative="1" as="geometry" />
        </mxCell>
        <mxCell id="wtUbn_X2x-yJxTkHuakB-1" value="Deletar Conta" style="ellipse;whiteSpace=wrap;html=1;" vertex="1" parent="1">
          <mxGeometry x="211.2" y="35.99999999999999" width="80" height="80" as="geometry" />
        </mxCell>
        <mxCell id="wtUbn_X2x-yJxTkHuakB-4" value="" style="endArrow=classic;html=1;rounded=0;entryX=0.5;entryY=0;entryDx=0;entryDy=0;exitX=0.501;exitY=0.857;exitDx=0;exitDy=0;exitPerimeter=0;entryPerimeter=0;" edge="1" parent="1" source="2XhtS2TlbzKRDNo_2Yrc-95" target="wtUbn_X2x-yJxTkHuakB-11">
          <mxGeometry width="50" height="50" relative="1" as="geometry">
            <mxPoint x="730" y="517.61" as="sourcePoint" />
            <mxPoint x="780" y="467.61" as="targetPoint" />
            <Array as="points">
              <mxPoint x="822" y="587.61" />
              <mxPoint x="804" y="587.61" />
            </Array>
          </mxGeometry>
        </mxCell>
        <mxCell id="wtUbn_X2x-yJxTkHuakB-7" value="" style="edgeStyle=orthogonalEdgeStyle;rounded=0;orthogonalLoop=1;jettySize=auto;html=1;" edge="1" parent="1" source="wtUbn_X2x-yJxTkHuakB-5" target="2XhtS2TlbzKRDNo_2Yrc-139">
          <mxGeometry relative="1" as="geometry" />
        </mxCell>
        <mxCell id="wtUbn_X2x-yJxTkHuakB-5" value="&quot;Processo de exclusão de senha interrompido.&lt;div&gt;&lt;br&gt;&lt;/div&gt;&lt;div&gt;Voltando a visualizar conta...&lt;span style=&quot;color: light-dark(rgb(0, 0, 0), rgb(255, 255, 255)); background-color: transparent;&quot;&gt;&quot;&lt;/span&gt;&lt;/div&gt;" style="shape=document;whiteSpace=wrap;html=1;boundedLbl=1;" vertex="1" parent="1">
          <mxGeometry x="211.24999999999997" y="188.92" width="118.75" height="122" as="geometry" />
        </mxCell>
        <mxCell id="wtUbn_X2x-yJxTkHuakB-9" value="&lt;font style=&quot;font-size: 12px;&quot;&gt;Escolha&lt;/font&gt;" style="text;html=1;align=center;verticalAlign=middle;resizable=0;points=[];autosize=1;strokeColor=none;fillColor=none;" vertex="1" parent="1">
          <mxGeometry x="773.75" y="625" width="70" height="30" as="geometry" />
        </mxCell>
      </root>
    </mxGraphModel>
  </diagram>
</mxfile>
